<?xml version="1.0" encoding="utf-8"?>
<!-- Generator: Adobe Illustrator 25.0.0, SVG Export Plug-In . SVG Version: 6.00 Build 0)  -->
<svg version="1.1" id="Layer_1" xmlns="http://www.w3.org/2000/svg" xmlns:xlink="http://www.w3.org/1999/xlink" x="0px" y="0px"
	 viewBox="0 0 72 72" style="enable-background:new 0 0 72 72;" xml:space="preserve">
<style type="text/css">
	.st0{fill:#D0A181;}
	.st1{fill:#FFFFFF;}
</style>
<g>
	<polygon class="st0" points="67,18.1 67,53.9 36,71.79 6.75,54.91 5,53.9 5,18.1 36,0.21 	"/>
	<g>
		<g>
			<path class="st1" d="M25.67,43.25v0.22h0.09v-0.22H25.67z M25.11,40.1c-0.07,0-0.18,0.04-0.31,0.11c0.38,0.43,0.6,0.65,0.65,0.65
				c0.15,0,0.22-0.07,0.22-0.22v-0.11C25.63,40.38,25.45,40.24,25.11,40.1z M25.67,43.25v0.22h0.09v-0.22H25.67z M25.11,40.1
				c-0.07,0-0.18,0.04-0.31,0.11c0.38,0.43,0.6,0.65,0.65,0.65c0.15,0,0.22-0.07,0.22-0.22v-0.11
				C25.63,40.38,25.45,40.24,25.11,40.1z M18.82,37.59L18.6,37.7l0.11,0.22l0.21-0.11L18.82,37.59z M18.82,37.59L18.6,37.7
				l0.11,0.22l0.21-0.11L18.82,37.59z M27.73,25h-2.17c-0.6,0-1.03,0.43-1.3,1.3c0.06,0.79,0.1,1.48,0.1,2.06v0.43
				c0,1.3-0.03,2.36-0.1,3.16c0.06,0.51,0.1,1.48,0.1,2.92v0.33c0,0.62-0.07,1.09-0.21,1.42l0.11,0.2
				c-0.07,0.38-0.11,0.61-0.11,0.67c0,0.07,0.04,0.18,0.11,0.31l-0.22,0.11h-0.11l-3.79-11.2C19.93,25.58,19.2,25,17.95,25
				c-0.38,0.07-0.6,0.11-0.65,0.11c-0.11,0-0.62-0.04-1.53-0.11c-0.63,0-1.06,0.55-1.3,1.64c0.15,1.84,0.22,3.28,0.22,4.34
				c0,0.07-0.04,0.19-0.11,0.33c0.07,0.12,0.11,0.27,0.11,0.43v0.99c0,0.39-0.04,0.9-0.11,1.5l0.22,0.87l-0.22,2.18
				c0.07,0.95,0.11,1.96,0.11,3.03c0,0.67-0.04,1.61-0.11,2.83c0.07,0.14,0.11,0.25,0.11,0.33l-0.11,0.21
				c0.07,2.39,0.15,3.59,0.22,3.59l-0.11,0.65v4.24c0,0.36-0.04,0.9-0.11,1.62c0.36,0.62,0.65,0.95,0.87,0.99h2.92
				c0.57,0,0.97-0.4,1.21-1.19c-0.07-0.12-0.11-0.27-0.11-0.44V40.86h0.11c0,0.29,0.07,0.43,0.21,0.43
				c0.36,1.23,0.65,1.84,0.87,1.84c1.16,3.62,2.06,6.16,2.72,7.61c0.5,2.68,1.15,4.02,1.96,4.02h2.72c0.58,0,0.94-0.36,1.08-1.08
				V25.76C28.82,25.25,28.35,25,27.73,25z M27.08,27.82h0.09v0.22h-0.09V27.82z M26.97,34.67h0.12v0.2h-0.12V34.67z M26.97,40.86
				h0.32c0,0.14-0.07,0.21-0.2,0.21h-0.12V40.86z M27.51,44.43v0.12c0,0.15-0.07,0.22-0.22,0.22h-0.11c0-0.22-0.11-0.34-0.32-0.34
				v-0.2h0.43C27.44,44.23,27.51,44.3,27.51,44.43z M27.29,38.58h0.22v0.22C27.38,38.8,27.31,38.73,27.29,38.58z M26.41,46.5v-0.21
				c0-0.12,0.07-0.19,0.22-0.22h0.33c0.21,0.11,0.32,0.22,0.32,0.32v0.11H26.41z M26.86,47.8v0.33h-0.11V47.8H26.86z M24.25,46.07
				v-0.11c0.41,0,0.67-0.04,0.76-0.11c-0.1-0.29-0.32-0.43-0.67-0.43V45.2c0.1,0,0.54-0.32,1.32-0.97l-0.11-0.22
				c-0.07,0-0.11,0.04-0.11,0.11l-0.22-0.11l-0.21,0.11c0-0.21-0.15-0.39-0.44-0.54c0-0.12,0.07-0.19,0.22-0.22l0.43-0.65
				c0.16,0,0.31,0.04,0.44,0.11l0.2-0.11c0.07,0,0.19,0.04,0.34,0.11c0.13,0,0.2-0.15,0.2-0.45h0.44c-0.51,0.65-0.76,1.27-0.76,1.86
				c0,0.21,0.18,0.32,0.54,0.32v0.33c-0.29,0-0.43,0.07-0.43,0.2c-0.36,0-0.54-0.06-0.54-0.2c-0.43,0-0.65,0.07-0.65,0.2
				c0.11,0.22,0.22,0.34,0.32,0.34h0.22c0.13,0,0.2-0.08,0.2-0.23l0.22,0.11h0.11l0.54-0.11l0.11,0.23
				c-0.66,0.36-0.99,0.75-0.99,1.19h-0.09l-0.44-0.32l-0.54,0.54h-0.11c0-0.13,0.07-0.35,0.22-0.65
				C24.67,46.11,24.49,46.07,24.25,46.07z M24.14,44.55l-0.22-0.12c0.11-0.21,0.22-0.31,0.33-0.31h0.32v0.43H24.14z M26.09,41.52
				l0.43-0.56c0.36,0.19,0.55,0.35,0.56,0.44c-0.3,0-0.45,0.14-0.45,0.43h-0.31C26.32,41.62,26.25,41.52,26.09,41.52z M26.86,45.31
				v-0.33c0.16,0,0.31-0.03,0.43-0.09v0.43H26.86z M26.86,40.64h-0.22v-0.33h0.22V40.64z M26.64,37.92v0.11l-0.54,0.12l-0.22-0.12
				c0-0.13,0.07-0.43,0.22-0.87h0.12C26.25,37.67,26.39,37.92,26.64,37.92z M26.41,28.48v-0.22h0.11v0.22H26.41z M26.52,31.96v-0.23
				h0.11v0.23H26.52z M26.32,27.94h0.2v0.21h-0.2V27.94z M25.76,35.86h0.22c0,0.12,0.07,0.31,0.23,0.54c-0.07,0-0.12,0.04-0.12,0.11
				l-0.54-0.43C25.56,35.96,25.63,35.88,25.76,35.86z M24.79,37.92h0.22v0.11h-0.22V37.92z M22.73,37.28v0.22h-0.22
				C22.51,37.37,22.58,37.3,22.73,37.28z M22.51,38.47c0-0.2,0.07-0.42,0.22-0.65l0.31,0.22c-0.06,0.4-0.09,0.68-0.09,0.86h-0.11
				c-0.22-0.11-0.33-0.21-0.33-0.31V38.47z M22.19,37.28h0.11v0.22h-0.11V37.28z M20.78,34.78h0.2v0.09h-0.2V34.78z M20.78,37.81
				c0.12,0.07,0.26,0.11,0.43,0.11c0,0.11-0.14,0.22-0.43,0.32V37.81z M20.44,37.81h-0.11c-0.21-0.11-0.31-0.22-0.31-0.31v-0.34
				c0.26-0.36,0.44-0.54,0.54-0.54h0.11v0.2L20.44,37.81z M20.66,38.47h-0.22v-0.22C20.59,38.24,20.66,38.32,20.66,38.47z
				 M20.55,36.51h-0.22V36.4h0.22V36.51z M20.33,34.22v0.45H19.9l-0.11-0.54L20.33,34.22z M19.58,34.13c0,0.06-0.11,0.31-0.33,0.74
				l0.22,0.11h0.2l0.34-0.2l-0.34,1.19c0,0.14,0.19,0.2,0.56,0.2v0.12l-0.56,0.11c-0.1,0-0.24-0.18-0.43-0.54v-0.33l0.11-0.21
				l-0.44-0.22h-0.1l0.21,0.54c-0.11,0.22-0.22,0.33-0.32,0.33h-0.44c0-0.07,0.04-0.19,0.11-0.33c0-0.07-0.04-0.18-0.11-0.32
				c0-0.11,0.15-0.22,0.44-0.33c0-0.07-0.04-0.11-0.11-0.11l0.11-0.74v-0.22c0.36,0,0.54-0.18,0.54-0.54h0.22L19.58,34.13z
				 M17.41,35.32H17.3c0.16-0.73,0.34-1.1,0.54-1.1c0.07,0,0.19,0.04,0.34,0.11C18.17,34.99,17.92,35.32,17.41,35.32z M18.06,36.08
				c0,0.43-0.07,0.65-0.23,0.65h-0.22c0-0.22-0.07-0.33-0.2-0.33c0.07-0.11,0.11-0.33,0.11-0.65h0.09L18.06,36.08z M16.65,30.54
				v-0.11h0.2v0.31C16.74,30.74,16.67,30.68,16.65,30.54z M16.76,35.97v0.43h-0.11v-0.43H16.76z M17.08,32.92v0.22h-0.23v-0.22
				H17.08z M17.41,33.46v0.23l-0.11,0.54h-0.45C16.85,33.87,17.03,33.61,17.41,33.46z M17.41,30.86v-0.32h0.2v0.32H17.41z
				 M18.06,34.13c-0.12,0-0.23-0.15-0.34-0.44v-0.11h0.54c0.15,0,0.22,0.07,0.22,0.22v0.33H18.06z M18.17,32.72
				c0.13,0,0.2,0.06,0.2,0.2c0.22,0,0.33-0.18,0.33-0.54h0.21c0.15,0,0.22,0.07,0.22,0.22v0.12c0,0.08-0.22,0.26-0.65,0.54h-0.22
				c-0.18-0.15-0.36-0.22-0.54-0.22v-0.22C17.89,32.81,18.03,32.78,18.17,32.72z M17.72,32.27l0.11-0.43l0.23,0.11l0.2-0.11v0.54
				l-0.09,0.22L17.72,32.27z M19.36,31.19v0.11c0,0.14-0.07,0.2-0.22,0.2h-0.11c-0.12,0-0.19-0.06-0.21-0.2v-0.11
				c0-0.12,0.07-0.2,0.21-0.22h0.11C19.29,30.97,19.36,31.04,19.36,31.19z M18.71,30.65c0.11-0.22,0.22-0.33,0.32-0.33h0.11v0.22
				c-0.11,0.21-0.22,0.32-0.32,0.32h-0.11V30.65z M18.71,31.08c-0.15,0-0.33,0.18-0.54,0.54c0-0.11-0.07-0.25-0.23-0.43
				c0.12-0.22,0.22-0.33,0.32-0.33h0.22C18.64,30.86,18.71,30.93,18.71,31.08z M17.61,28.37c0.09,0,0.2,0.04,0.33,0.11l0.23-0.11
				c0,0.07,0.06,0.11,0.2,0.11v0.11c-0.21,0-0.39,0.14-0.54,0.43v0.11l0.23,0.31h-0.87c-0.12,0-0.24-0.18-0.34-0.54h0.23l0.22,0.12
				L17.61,28.37z M17.08,27.29v0.2h-0.23C16.85,27.37,16.92,27.3,17.08,27.29z M16.53,27.71h0.22c0,0.31,0.07,0.6,0.2,0.87h-0.31
				l-0.11-0.76V27.71z M16.42,39h0.22v0.12h-0.22V39z M16.76,43.79h-0.22v-0.21C16.68,43.58,16.76,43.65,16.76,43.79z M16.65,51.82
				h-0.11v-0.21h0.11V51.82z M16.65,47.27h-0.11c-0.12,0-0.2-0.08-0.22-0.23v-0.2h0.11c0.15,0,0.22,0.07,0.22,0.2V47.27z
				 M16.65,45.85h0.31v0.22h-0.11C16.74,46.07,16.67,46,16.65,45.85z M17.08,40.96c-0.12,0-0.2-0.07-0.23-0.21v-0.11h0.34v0.11
				L17.08,40.96z M17.19,49.98c0,0.07,0.04,0.19,0.11,0.33l-0.11,0.2c-0.12,0-0.2-0.07-0.23-0.2V50.2
				C16.96,50.08,17.03,50.01,17.19,49.98z M17.52,52.05c-0.44-0.2-0.67-0.34-0.67-0.43V51.5c0.23,0,0.34-0.07,0.34-0.22
				c0.12,0,0.26,0.22,0.43,0.65C17.55,51.93,17.52,51.97,17.52,52.05z M17.3,45.63v-0.2c0.15,0,0.22,0.06,0.22,0.2H17.3z
				 M18.17,44.88l-0.56-0.11v-0.22c0.19,0,0.37-0.08,0.56-0.23V44.88z M18.38,42.82c-0.21,0-0.31,0.06-0.31,0.2
				c-0.41-0.29-0.7-0.43-0.87-0.43v-0.11c0.07,0,0.19-0.04,0.33-0.11l0.31,0.22h0.34l0.2-0.11V42.82z M17.41,41.52V41.4
				c0.51-0.15,0.79-0.22,0.86-0.22v0.33l-0.32,0.43C17.72,41.66,17.54,41.52,17.41,41.52z M18.71,41.83H18.6V41.4h0.43
				C18.93,41.69,18.82,41.83,18.71,41.83z M19.58,40.1c0,0.13-0.07,0.2-0.22,0.2v-0.31h0.22V40.1z M19.79,39.88
				c0-0.36-0.22-0.54-0.65-0.54v0.11l0.22,0.31h-0.33c-0.29-0.17-0.43-0.31-0.43-0.43l-0.22,0.11c0.15,0.51,0.22,0.79,0.22,0.86
				v0.22l-0.65-0.43v0.11l0.12,0.54c-0.07,0-0.12,0.04-0.12,0.11c-0.11,0-0.22-0.15-0.33-0.44h0.11l-0.31-0.43V39h0.11l0.31,0.23
				h0.23c0.21-0.11,0.31-0.23,0.31-0.34V38.8c0-0.12-0.07-0.2-0.2-0.22l-0.45,0.31l-0.54-0.31l-0.23,0.11
				c0-0.15-0.14-0.22-0.43-0.22v-0.31l0.76,0.09h0.11l0.76-0.86v-0.56c0.38,0,0.63-0.14,0.74-0.43l0.56,0.11v0.11h-0.33v0.31
				c0.22,0,0.48,0.04,0.76,0.11v0.11c-0.21,0-0.32,0.08-0.32,0.23v0.31c0,0.15,0.22,0.26,0.65,0.33v0.12c-0.22,0-0.33,0.1-0.33,0.31
				h-0.11c0-0.07-0.04-0.18-0.12-0.31c-0.06,0-0.38,0.1-0.97,0.31l0.21,0.33l0.67-0.11c0.16,0,0.49,0.11,0.97,0.31
				c-0.07,0.59-0.18,0.87-0.31,0.87H19.79z M20.55,41.61h-0.11v-0.2h0.11V41.61z M21.74,42.06h-0.11v-0.54h0.11l0.22,0.09
				C21.82,41.8,21.74,41.95,21.74,42.06z M22.62,43.68c-0.12,0-0.2-0.07-0.23-0.21h0.23V43.68z M22.62,42.82H22.3
				c-0.12,0-0.2-0.07-0.22-0.23v-0.22c0.24,0.15,0.42,0.22,0.54,0.22V42.82z M22.62,41.72c-0.12,0-0.2-0.06-0.23-0.2l0.12-0.22
				c0.15,0,0.22,0.07,0.22,0.22L22.62,41.72z M22.62,40.86l-0.23-0.11H22.3l-0.56,0.11c0-0.07-0.04-0.11-0.11-0.11l0.11-0.54V40.1
				c-0.74,0.51-1.14,0.76-1.19,0.76c-0.07,0-0.15-0.11-0.22-0.33c0.32-0.51,0.54-0.76,0.65-0.76l0.22,0.11
				c0-0.07,0.04-0.11,0.11-0.11l-0.22-0.31v-0.22l0.11-0.54c-0.07,0-0.11-0.04-0.11-0.11l0.54,0.11v-0.11
				c0-0.15-0.18-0.22-0.54-0.22c0.22-0.24,0.33-0.42,0.33-0.54c0.51,0.25,0.76,0.43,0.76,0.54c-0.37,0.42-0.56,0.79-0.56,1.1
				c0.22,0.24,0.33,0.42,0.33,0.54l0.22-0.12h0.11c0,0.23,0.22,0.41,0.65,0.54L22.62,40.86z M23.16,42.59v-0.11
				c0.18-0.28,0.32-0.43,0.45-0.43c0-0.07-0.04-0.19-0.11-0.34V41.4h0.11c0.05,0.36,0.15,0.54,0.31,0.54c0.15,0,0.22-0.07,0.22-0.23
				v-0.2c0-0.57-0.43-1.19-1.3-1.86v-0.11c0.13-0.17,0.2-0.35,0.2-0.54h0.56v0.12c0,0.15-0.07,0.22-0.23,0.22l0.12,0.2
				c0.12,0,0.3-0.07,0.54-0.2h0.11v0.31c-0.3,0-0.44,0.07-0.44,0.22v0.12l0.11,0.22c0.66-0.29,0.99-0.47,0.99-0.56v-0.2l-0.22-0.33
				V38.8c0.2-0.43,0.35-0.65,0.44-0.65v0.2l-0.11,0.54h0.32l0.44-0.65h0.09c0.2,0.22,0.53,0.33,0.99,0.33v0.11
				c-0.22,0-0.33,0.07-0.33,0.2c-0.63,0.21-0.99,0.43-1.08,0.65c0,0.12,0.21,0.27,0.65,0.45l0.23-0.12h0.11
				c0,0.54-0.19,1.01-0.56,1.42v0.65h-0.09c-0.43-0.19-0.65-0.4-0.65-0.65h-0.22v0.11c0,0.24,0.11,0.49,0.31,0.76v0.09h-0.2
				l-0.33-0.2h-0.22c-0.5,0.24-0.74,0.45-0.74,0.65l0.2,0.31c0.11,0,0.33-0.18,0.65-0.54h0.33v0.11c-0.21,0.58-0.36,0.87-0.44,0.87
				h-0.86v-0.11l0.11-0.22C23.5,43.13,23.35,42.95,23.16,42.59z M23.16,40.96v-0.21h0.11v0.21H23.16z M23.6,44.23
				c0.13,0,0.2,0.07,0.2,0.2v0.23l-0.11,0.22l-0.2-0.11L23.6,44.23z M23.6,46.61c0.39,0.07,0.68,0.11,0.86,0.11
				c0,0.11-0.14,0.22-0.43,0.31L23.6,46.61z M24.25,47.8c0.26-0.36,0.44-0.54,0.54-0.54c0,0.07,0.04,0.19,0.11,0.33h0.11
				c0.5-0.18,0.74-0.47,0.74-0.87l0.76,0.31v0.23c-0.62,0.36-1.02,0.65-1.19,0.87H24.9V47.8H24.25z M25.34,49.87
				c-0.12,0-0.2-0.06-0.23-0.2v-0.11c0.3-0.37,0.45-0.59,0.45-0.65l-0.11-0.44c0-0.21,0.07-0.32,0.22-0.32h0.2
				c0.3,0.18,0.45,0.32,0.45,0.43v0.11c0,0.2-0.07,0.42-0.23,0.65C25.59,49.57,25.34,49.75,25.34,49.87z M26.41,49.87
				c0,0.15-0.07,0.23-0.2,0.23c-0.12,0-0.2-0.07-0.23-0.23v-0.31L26.41,49.87z M25.76,51.39h-0.2v-0.11h0.2V51.39z M26.52,51.82
				h-0.11v-0.21h0.11V51.82z M26.75,50.85l-0.11,0.21c-0.64-0.34-0.97-0.55-0.97-0.65c0.3,0,0.58-0.03,0.86-0.09l0.22,0.31V50.85z
				 M26.97,49.44h-0.11v-0.43h0.11V49.44z M26.97,48.79h-0.22l-0.33-0.22c0-0.11,0.15-0.22,0.44-0.31h0.11V48.79z M27.29,50.09
				c0,0.15-0.07,0.22-0.2,0.22v-0.33h0.2V50.09z M27.29,47.91c-0.12,0-0.19-0.07-0.2-0.22V47.6h0.09l0.22,0.09L27.29,47.91z
				 M27.62,45.54H27.4v-0.11h0.22V45.54z M27.62,29.89c0,0.14-0.07,0.21-0.22,0.21L27.18,30c0.07-0.12,0.11-0.31,0.11-0.56h0.33
				V29.89z M25.76,43.25h-0.09v0.22h0.09V43.25z M25.45,40.86c0.15,0,0.22-0.07,0.22-0.22v-0.11c-0.04-0.15-0.22-0.29-0.56-0.43
				c-0.07,0-0.18,0.04-0.31,0.11C25.18,40.65,25.4,40.86,25.45,40.86z M18.92,37.81l-0.1-0.22L18.6,37.7l0.11,0.22L18.92,37.81z"/>
		</g>
		<g>
			<path class="st1" d="M36.44,29.18h-2.4c-0.82,0-1.29,0.47-1.41,1.41c0,0.73,0.04,1.64,0.11,2.73c-0.07,0.5-0.11,0.89-0.11,1.19
				c0,0.13,0.07,0.39,0.22,0.76l-0.11,0.65v11.1l-0.11,0.54c0.07,0,0.11,0.04,0.11,0.11c-0.07,1.61-0.11,2.91-0.11,3.91v1.75
				c0,0.63,0.25,1.11,0.76,1.42h2.83c0.87-0.07,1.3-0.47,1.3-1.19v-23.4C37.52,29.61,37.16,29.28,36.44,29.18z M35.68,32.78h0.11V33
				h-0.11V32.78z M34.8,35.82h0.11v0.22H34.8V35.82z M35.12,44.42v0.34c-0.11,0-0.18-0.07-0.2-0.22v-0.32
				C35.05,44.21,35.12,44.28,35.12,44.42z M34.47,33.65h0.11v0.22h-0.11V33.65z M34.04,41.27h0.32v0.2h-0.32V41.27z M34.15,43.01
				l0.32-0.43c0.15,0,0.22,0.07,0.22,0.23v0.09c-0.16,0-0.31,0.04-0.43,0.11H34.15z M34.58,46.6h0.22v0.33h-0.22V46.6z M34.47,48.77
				v-0.31h0.33c0.15,0,0.22,0.07,0.22,0.2v0.11c-0.22,0-0.33,0.07-0.33,0.22C34.57,48.99,34.49,48.92,34.47,48.77z M34.91,50.41
				c-0.12,0-0.2-0.07-0.22-0.22v-0.11h0.22V50.41z M35.12,49.42h-0.43v-0.09c0.11-0.22,0.22-0.34,0.33-0.34h0.09V49.42z
				 M34.91,45.94c-0.12,0-0.2-0.07-0.22-0.22l0.33-0.54c0.21,0.11,0.32,0.22,0.32,0.34L34.91,45.94z M35.23,35.28l-0.32-0.22
				c0-0.12,0.07-0.19,0.2-0.2h0.12c0.15,0,0.22,0.07,0.22,0.2C35.45,35.21,35.38,35.28,35.23,35.28z M35.45,32.68h-0.22
				c0-0.12,0.07-0.2,0.22-0.23V32.68z M35.57,43.45c0-0.12,0.07-0.19,0.22-0.22v0.33h-0.22V43.45z M35.88,50.63h-0.2v-0.11h0.2
				V50.63z M36.64,22.23c-0.32,0-1.12,0.04-2.38,0.11c-0.06,0-0.28-0.04-0.65-0.11c-0.6,0.31-0.93,0.64-0.99,0.99
				c0,0.41,0.04,0.99,0.11,1.73c0,0.11-0.07,0.44-0.22,0.99c0.26,0.8,0.62,1.19,1.1,1.19h2.6c0.87-0.07,1.3-0.47,1.3-1.19v-2.72
				C37.52,22.78,37.23,22.45,36.64,22.23z"/>
		</g>
		<g>
			<path class="st1" d="M52.53,43.25v0.22h0.09v-0.22H52.53z M51.97,40.1c-0.07,0-0.18,0.04-0.31,0.11c0.38,0.43,0.6,0.65,0.65,0.65
				c0.15,0,0.23-0.07,0.23-0.22v-0.11C52.49,40.38,52.31,40.24,51.97,40.1z M52.53,43.25v0.22h0.09v-0.22H52.53z M51.97,40.1
				c-0.07,0-0.18,0.04-0.31,0.11c0.38,0.43,0.6,0.65,0.65,0.65c0.15,0,0.23-0.07,0.23-0.22v-0.11
				C52.49,40.38,52.31,40.24,51.97,40.1z M45.68,37.59l-0.22,0.11l0.11,0.22l0.2-0.11L45.68,37.59z M45.68,37.59l-0.22,0.11
				l0.11,0.22l0.2-0.11L45.68,37.59z M54.6,25h-2.18c-0.59,0-1.03,0.43-1.3,1.3c0.06,0.79,0.09,1.48,0.09,2.06v0.43
				c0,1.3-0.03,2.36-0.09,3.16c0.06,0.51,0.09,1.48,0.09,2.92v0.33c0,0.62-0.07,1.09-0.2,1.42l0.11,0.2
				C51.04,37.21,51,37.43,51,37.5c0,0.07,0.04,0.18,0.11,0.31l-0.22,0.11h-0.11l-3.8-11.2C46.79,25.58,46.06,25,44.81,25
				c-0.38,0.07-0.6,0.11-0.65,0.11c-0.11,0-0.62-0.04-1.52-0.11c-0.63,0-1.07,0.55-1.3,1.64c0.15,1.84,0.22,3.28,0.22,4.34
				c0,0.07-0.04,0.19-0.11,0.33c0.07,0.12,0.11,0.27,0.11,0.43v0.99c0,0.39-0.04,0.9-0.11,1.5l0.23,0.87l-0.23,2.18
				c0.07,0.95,0.11,1.96,0.11,3.03c0,0.67-0.04,1.61-0.11,2.83c0.07,0.14,0.11,0.25,0.11,0.33l-0.11,0.21
				c0.07,2.39,0.15,3.59,0.23,3.59l-0.12,0.65v4.24c0,0.36-0.04,0.9-0.11,1.62c0.36,0.62,0.65,0.95,0.87,0.99h2.92
				c0.57,0,0.97-0.4,1.21-1.19c-0.07-0.12-0.11-0.27-0.11-0.44V40.86h0.11c0,0.29,0.07,0.43,0.2,0.43c0.36,1.23,0.65,1.84,0.87,1.84
				c1.15,3.62,2.06,6.16,2.72,7.61c0.5,2.68,1.15,4.02,1.95,4.02h2.72c0.58,0,0.94-0.36,1.08-1.08V25.76
				C55.68,25.25,55.22,25,54.6,25z M53.94,27.82h0.09v0.22h-0.09V27.82z M53.83,34.67h0.11v0.2h-0.11V34.67z M53.83,40.86h0.31
				c0,0.14-0.06,0.21-0.2,0.21h-0.11V40.86z M54.37,44.43v0.12c0,0.15-0.07,0.22-0.23,0.22h-0.11c0-0.22-0.11-0.34-0.31-0.34v-0.2
				h0.43C54.3,44.23,54.37,44.3,54.37,44.43z M54.15,38.58h0.23v0.22C54.25,38.8,54.17,38.73,54.15,38.58z M53.27,46.5v-0.21
				c0-0.12,0.07-0.19,0.23-0.22h0.33c0.21,0.11,0.31,0.22,0.31,0.32v0.11H53.27z M53.72,47.8v0.33h-0.11V47.8H53.72z M51.12,46.07
				v-0.11c0.41,0,0.66-0.04,0.76-0.11c-0.1-0.29-0.32-0.43-0.67-0.43V45.2c0.1,0,0.54-0.32,1.32-0.97l-0.12-0.22
				c-0.07,0-0.11,0.04-0.11,0.11l-0.22-0.11l-0.2,0.11c0-0.21-0.15-0.39-0.45-0.54c0-0.12,0.07-0.19,0.23-0.22l0.43-0.65
				c0.16,0,0.31,0.04,0.45,0.11l0.2-0.11c0.07,0,0.19,0.04,0.33,0.11c0.14,0,0.2-0.15,0.2-0.45h0.45c-0.51,0.65-0.76,1.27-0.76,1.86
				c0,0.21,0.18,0.32,0.54,0.32v0.33c-0.29,0-0.43,0.07-0.43,0.2c-0.36,0-0.54-0.06-0.54-0.2c-0.43,0-0.65,0.07-0.65,0.2
				c0.11,0.22,0.22,0.34,0.31,0.34h0.22c0.14,0,0.21-0.08,0.21-0.23l0.22,0.11h0.11l0.54-0.11l0.11,0.23
				c-0.66,0.36-0.99,0.75-0.99,1.19h-0.09l-0.45-0.32l-0.54,0.54h-0.11c0-0.13,0.07-0.35,0.23-0.65
				C51.53,46.11,51.35,46.07,51.12,46.07z M51,44.55l-0.22-0.12c0.11-0.21,0.22-0.31,0.33-0.31h0.31v0.43H51z M52.96,41.52
				l0.43-0.56c0.36,0.19,0.54,0.35,0.56,0.44c-0.3,0-0.44,0.14-0.44,0.43h-0.32C53.18,41.62,53.11,41.52,52.96,41.52z M53.72,45.31
				v-0.33c0.16,0,0.31-0.03,0.43-0.09v0.43H53.72z M53.72,40.64H53.5v-0.33h0.22V40.64z M53.5,37.92v0.11l-0.54,0.12l-0.22-0.12
				c0-0.13,0.07-0.43,0.22-0.87h0.11C53.11,37.67,53.25,37.92,53.5,37.92z M53.27,28.48v-0.22h0.12v0.22H53.27z M53.39,31.96v-0.23
				h0.11v0.23H53.39z M53.18,27.94h0.21v0.21h-0.21V27.94z M52.62,35.86h0.22c0,0.12,0.07,0.31,0.22,0.54
				c-0.07,0-0.11,0.04-0.11,0.11l-0.54-0.43C52.42,35.96,52.49,35.88,52.62,35.86z M51.66,37.92h0.22v0.11h-0.22V37.92z
				 M49.59,37.28v0.22h-0.22C49.37,37.37,49.44,37.3,49.59,37.28z M49.37,38.47c0-0.2,0.07-0.42,0.22-0.65l0.32,0.22
				c-0.06,0.4-0.09,0.68-0.09,0.86H49.7c-0.22-0.11-0.33-0.21-0.33-0.31V38.47z M49.05,37.28h0.11v0.22h-0.11V37.28z M47.64,34.78
				h0.2v0.09h-0.2V34.78z M47.64,37.81c0.12,0.07,0.27,0.11,0.43,0.11c0,0.11-0.14,0.22-0.43,0.32V37.81z M47.3,37.81h-0.11
				c-0.21-0.11-0.32-0.22-0.32-0.31v-0.34c0.26-0.36,0.44-0.54,0.54-0.54h0.11v0.2L47.3,37.81z M47.53,38.47H47.3v-0.22
				C47.45,38.24,47.53,38.32,47.53,38.47z M47.41,36.51h-0.22V36.4h0.22V36.51z M47.19,34.22v0.45h-0.43l-0.11-0.54L47.19,34.22z
				 M46.45,34.13c0,0.06-0.11,0.31-0.33,0.74l0.22,0.11h0.2l0.33-0.2l-0.33,1.19c0,0.14,0.19,0.2,0.56,0.2v0.12l-0.56,0.11
				c-0.1,0-0.24-0.18-0.43-0.54v-0.33l0.11-0.21l-0.45-0.22h-0.09l0.2,0.54c-0.11,0.22-0.22,0.33-0.31,0.33h-0.45
				c0-0.07,0.04-0.19,0.12-0.33c0-0.07-0.04-0.18-0.12-0.32c0-0.11,0.15-0.22,0.45-0.33c0-0.07-0.04-0.11-0.11-0.11l0.11-0.74v-0.22
				c0.36,0,0.54-0.18,0.54-0.54h0.22L46.45,34.13z M44.27,35.32h-0.11c0.16-0.73,0.34-1.1,0.54-1.1c0.07,0,0.19,0.04,0.33,0.11
				C45.03,34.99,44.78,35.32,44.27,35.32z M44.92,36.08c0,0.43-0.07,0.65-0.22,0.65h-0.22c0-0.22-0.07-0.33-0.21-0.33
				c0.08-0.11,0.12-0.33,0.12-0.65h0.09L44.92,36.08z M43.51,30.54v-0.11h0.2v0.31C43.6,30.74,43.53,30.68,43.51,30.54z
				 M43.62,35.97v0.43h-0.11v-0.43H43.62z M43.94,32.92v0.22h-0.22v-0.22H43.94z M44.27,33.46v0.23l-0.11,0.54h-0.44
				C43.71,33.87,43.9,33.61,44.27,33.46z M44.27,30.86v-0.32h0.21v0.32H44.27z M44.92,34.13c-0.11,0-0.22-0.15-0.33-0.44v-0.11h0.54
				c0.15,0,0.23,0.07,0.23,0.22v0.33H44.92z M45.03,32.72c0.14,0,0.21,0.06,0.21,0.2c0.22,0,0.33-0.18,0.33-0.54h0.2
				c0.15,0,0.22,0.07,0.22,0.22v0.12c0,0.08-0.22,0.26-0.65,0.54h-0.23c-0.17-0.15-0.35-0.22-0.54-0.22v-0.22
				C44.75,32.81,44.9,32.78,45.03,32.72z M44.59,32.27l0.11-0.43l0.22,0.11l0.2-0.11v0.54l-0.09,0.22L44.59,32.27z M46.23,31.19
				v0.11c0,0.14-0.07,0.2-0.23,0.2h-0.11c-0.12,0-0.19-0.06-0.2-0.2v-0.11c0-0.12,0.07-0.2,0.2-0.22H46
				C46.15,30.97,46.23,31.04,46.23,31.19z M45.57,30.65c0.11-0.22,0.22-0.33,0.31-0.33H46v0.22c-0.11,0.21-0.22,0.32-0.31,0.32
				h-0.11V30.65z M45.57,31.08c-0.15,0-0.33,0.18-0.54,0.54c0-0.11-0.07-0.25-0.22-0.43c0.11-0.22,0.22-0.33,0.31-0.33h0.23
				C45.5,30.86,45.57,30.93,45.57,31.08z M44.48,28.37c0.08,0,0.2,0.04,0.33,0.11l0.22-0.11c0,0.07,0.07,0.11,0.21,0.11v0.11
				c-0.21,0-0.39,0.14-0.54,0.43v0.11l0.22,0.31h-0.87c-0.12,0-0.24-0.18-0.33-0.54h0.22l0.22,0.12L44.48,28.37z M43.94,27.29v0.2
				h-0.22C43.71,27.37,43.79,27.3,43.94,27.29z M43.4,27.71h0.22c0,0.31,0.06,0.6,0.2,0.87h-0.31l-0.11-0.76V27.71z M43.28,39h0.23
				v0.12h-0.23V39z M43.62,43.79H43.4v-0.21C43.55,43.58,43.62,43.65,43.62,43.79z M43.51,51.82H43.4v-0.21h0.11V51.82z
				 M43.51,47.27H43.4c-0.12,0-0.2-0.08-0.23-0.23v-0.2h0.11c0.15,0,0.23,0.07,0.23,0.2V47.27z M43.51,45.85h0.31v0.22h-0.11
				C43.6,46.07,43.53,46,43.51,45.85z M43.94,40.96c-0.12,0-0.2-0.07-0.22-0.21v-0.11h0.33v0.11L43.94,40.96z M44.05,49.98
				c0,0.07,0.04,0.19,0.11,0.33l-0.11,0.2c-0.12,0-0.2-0.07-0.22-0.2V50.2C43.82,50.08,43.9,50.01,44.05,49.98z M44.38,52.05
				c-0.45-0.2-0.67-0.34-0.67-0.43V51.5c0.22,0,0.33-0.07,0.33-0.22c0.12,0,0.27,0.22,0.43,0.65
				C44.41,51.93,44.38,51.97,44.38,52.05z M44.16,45.63v-0.2c0.15,0,0.23,0.06,0.23,0.2H44.16z M45.03,44.88l-0.56-0.11v-0.22
				c0.19,0,0.37-0.08,0.56-0.23V44.88z M45.24,42.82c-0.21,0-0.32,0.06-0.32,0.2c-0.41-0.29-0.7-0.43-0.87-0.43v-0.11
				c0.07,0,0.19-0.04,0.34-0.11l0.31,0.22h0.33l0.21-0.11V42.82z M44.27,41.52V41.4c0.51-0.15,0.8-0.22,0.86-0.22v0.33l-0.31,0.43
				C44.59,41.66,44.41,41.52,44.27,41.52z M45.57,41.83h-0.11V41.4h0.43C45.79,41.69,45.68,41.83,45.57,41.83z M46.45,40.1
				c0,0.13-0.07,0.2-0.22,0.2v-0.31h0.22V40.1z M46.65,39.88c0-0.36-0.22-0.54-0.65-0.54v0.11l0.23,0.31h-0.34
				c-0.28-0.17-0.43-0.31-0.43-0.43l-0.22,0.11c0.15,0.51,0.22,0.79,0.22,0.86v0.22l-0.65-0.43v0.11l0.11,0.54
				c-0.07,0-0.11,0.04-0.11,0.11c-0.11,0-0.22-0.15-0.33-0.44h0.11l-0.32-0.43V39h0.12l0.31,0.23h0.22
				c0.21-0.11,0.32-0.23,0.32-0.34V38.8c0-0.12-0.07-0.2-0.21-0.22l-0.44,0.31l-0.54-0.31l-0.22,0.11c0-0.15-0.14-0.22-0.43-0.22
				v-0.31l0.76,0.09h0.11l0.76-0.86v-0.56c0.38,0,0.63-0.14,0.74-0.43l0.56,0.11v0.11H46v0.31c0.23,0,0.48,0.04,0.76,0.11v0.11
				c-0.21,0-0.31,0.08-0.31,0.23v0.31c0,0.15,0.22,0.26,0.65,0.33v0.12c-0.23,0-0.34,0.1-0.34,0.31h-0.11
				c0-0.07-0.04-0.18-0.11-0.31c-0.06,0-0.38,0.1-0.97,0.31l0.2,0.33l0.67-0.11c0.16,0,0.48,0.11,0.97,0.31
				c-0.07,0.59-0.18,0.87-0.31,0.87H46.65z M47.41,41.61H47.3v-0.2h0.11V41.61z M48.6,42.06h-0.11v-0.54h0.11l0.22,0.09
				C48.68,41.8,48.6,41.95,48.6,42.06z M49.48,43.68c-0.12,0-0.2-0.07-0.22-0.21h0.22V43.68z M49.48,42.82h-0.31
				c-0.12,0-0.2-0.07-0.22-0.23v-0.22c0.23,0.15,0.41,0.22,0.54,0.22V42.82z M49.48,41.72c-0.12,0-0.2-0.06-0.22-0.2l0.11-0.22
				c0.15,0,0.22,0.07,0.22,0.22L49.48,41.72z M49.48,40.86l-0.22-0.11h-0.09l-0.56,0.11c0-0.07-0.04-0.11-0.11-0.11l0.11-0.54V40.1
				c-0.74,0.51-1.14,0.76-1.19,0.76c-0.07,0-0.15-0.11-0.22-0.33c0.32-0.51,0.54-0.76,0.65-0.76l0.23,0.11
				c0-0.07,0.04-0.11,0.11-0.11l-0.22-0.31v-0.22l0.11-0.54c-0.07,0-0.11-0.04-0.11-0.11l0.54,0.11v-0.11
				c0-0.15-0.18-0.22-0.54-0.22c0.22-0.24,0.33-0.42,0.33-0.54c0.51,0.25,0.76,0.43,0.76,0.54c-0.37,0.42-0.56,0.79-0.56,1.1
				c0.22,0.24,0.33,0.42,0.33,0.54l0.23-0.12h0.11c0,0.23,0.22,0.41,0.65,0.54L49.48,40.86z M50.02,42.59v-0.11
				c0.17-0.28,0.32-0.43,0.44-0.43c0-0.07-0.04-0.19-0.11-0.34V41.4h0.11c0.05,0.36,0.16,0.54,0.32,0.54c0.15,0,0.22-0.07,0.22-0.23
				v-0.2c0-0.57-0.43-1.19-1.3-1.86v-0.11c0.14-0.17,0.21-0.35,0.21-0.54h0.56v0.12c0,0.15-0.07,0.22-0.22,0.22l0.11,0.2
				c0.12,0,0.31-0.07,0.54-0.2H51v0.31c-0.3,0-0.45,0.07-0.45,0.22v0.12l0.12,0.22c0.66-0.29,0.99-0.47,0.99-0.56v-0.2l-0.23-0.33
				V38.8c0.2-0.43,0.35-0.65,0.45-0.65v0.2l-0.11,0.54h0.31l0.45-0.65h0.09c0.19,0.22,0.53,0.33,0.99,0.33v0.11
				c-0.22,0-0.34,0.07-0.34,0.2c-0.63,0.21-0.99,0.43-1.08,0.65c0,0.12,0.22,0.27,0.65,0.45l0.22-0.12h0.11
				c0,0.54-0.19,1.01-0.56,1.42v0.65h-0.09c-0.43-0.19-0.65-0.4-0.65-0.65h-0.22v0.11c0,0.24,0.1,0.49,0.31,0.76v0.09h-0.2
				l-0.34-0.2h-0.22c-0.5,0.24-0.74,0.45-0.74,0.65l0.21,0.31c0.11,0,0.32-0.18,0.65-0.54h0.34v0.11c-0.21,0.58-0.36,0.87-0.45,0.87
				h-0.86v-0.11l0.11-0.22C50.37,43.13,50.22,42.95,50.02,42.59z M50.02,40.96v-0.21h0.11v0.21H50.02z M50.46,44.23
				c0.14,0,0.21,0.07,0.21,0.2v0.23l-0.12,0.22l-0.2-0.11L50.46,44.23z M50.46,46.61c0.4,0.07,0.68,0.11,0.86,0.11
				c0,0.11-0.14,0.22-0.43,0.31L50.46,46.61z M51.12,47.8c0.26-0.36,0.44-0.54,0.54-0.54c0,0.07,0.04,0.19,0.11,0.33h0.11
				c0.5-0.18,0.74-0.47,0.74-0.87l0.76,0.31v0.23c-0.62,0.36-1.02,0.65-1.19,0.87h-0.43V47.8H51.12z M52.19,49.87
				c-0.12,0-0.2-0.06-0.22-0.2v-0.11c0.3-0.37,0.44-0.59,0.44-0.65l-0.11-0.44c0-0.21,0.07-0.32,0.23-0.32h0.2
				c0.3,0.18,0.44,0.32,0.44,0.43v0.11c0,0.2-0.07,0.42-0.22,0.65C52.45,49.57,52.19,49.75,52.19,49.87z M53.27,49.87
				c0,0.15-0.06,0.23-0.2,0.23c-0.12,0-0.2-0.07-0.22-0.23v-0.31L53.27,49.87z M52.62,51.39h-0.21v-0.11h0.21V51.39z M53.39,51.82
				h-0.12v-0.21h0.12V51.82z M53.61,50.85l-0.11,0.21c-0.65-0.34-0.97-0.55-0.97-0.65c0.3,0,0.58-0.03,0.86-0.09l0.22,0.31V50.85z
				 M53.83,49.44h-0.11v-0.43h0.11V49.44z M53.83,48.79h-0.22l-0.34-0.22c0-0.11,0.15-0.22,0.45-0.31h0.11V48.79z M54.15,50.09
				c0,0.15-0.06,0.22-0.2,0.22v-0.33h0.2V50.09z M54.15,47.91c-0.12,0-0.19-0.07-0.2-0.22V47.6h0.09l0.22,0.09L54.15,47.91z
				 M54.48,45.54h-0.23v-0.11h0.23V45.54z M54.48,29.89c0,0.14-0.07,0.21-0.23,0.21L54.04,30c0.07-0.12,0.11-0.31,0.11-0.56h0.34
				V29.89z M52.62,43.25h-0.09v0.22h0.09V43.25z M52.31,40.86c0.15,0,0.23-0.07,0.23-0.22v-0.11c-0.04-0.15-0.23-0.29-0.56-0.43
				c-0.07,0-0.18,0.04-0.31,0.11C52.04,40.65,52.26,40.86,52.31,40.86z M45.78,37.81l-0.09-0.22l-0.22,0.11l0.11,0.22L45.78,37.81z"
				/>
		</g>
	</g>
	<g>
		<path class="st1" d="M48.29,20.74c0.35,0.66,0.51,1.29,0.91,1.6c0.4,0.3,1.05,0.27,1.55,0.37c-0.34,0.33-0.92,0.67-1.16,1.17
			c-0.24,0.51-0.14,1.18-0.24,1.87c-0.34-1.24-0.82-2.29-2.46-1.67c0.54-0.51,1.14-0.85,1.35-1.35
			C48.45,22.21,48.29,21.54,48.29,20.74z"/>
	</g>
	<g>
		<path class="st1" d="M53.59,20.46c-0.38,0.76-0.4,1.43,0.16,2.13c-0.63-0.46-1.2-0.64-1.75,0.03c0.11-0.34,0.31-0.67,0.3-1
			c-0.01-0.32-0.22-0.64-0.36-1.06C52.53,21.14,53.05,20.97,53.59,20.46z"/>
	</g>
	<g>
		<path class="st1" d="M45.89,20.85c-0.38,0.76-0.4,1.43,0.16,2.13c-0.63-0.46-1.2-0.64-1.75,0.03c0.11-0.34,0.31-0.67,0.3-1
			c-0.01-0.32-0.22-0.64-0.36-1.06C44.83,21.54,45.35,21.37,45.89,20.85z"/>
	</g>
	<g>
		<g>
			<path class="st1" d="M43.65,10.98c0.22,0.11,0.41,0.19,0.58,0.31c0.05,0.04,0.05,0.2,0.08,0.31c-0.07,0.01-0.17,0.06-0.22,0.02
				C43.93,11.47,43.64,11.47,43.65,10.98z"/>
		</g>
		<g>
			<path class="st1" d="M45.25,11.87c-0.14,0.15-0.23,0.28-0.25,0.26c-0.14-0.11-0.27-0.26-0.41-0.39c0.05-0.07,0.13-0.22,0.16-0.21
				C44.9,11.61,45.04,11.72,45.25,11.87z"/>
		</g>
		<g>
			<path class="st1" d="M43.34,13.57c0.18,0.16,0.37,0.31,0.53,0.5c0.05,0.06,0.03,0.21,0.04,0.32c-0.08-0.03-0.18-0.02-0.23-0.08
				c-0.16-0.19-0.29-0.41-0.44-0.62C43.28,13.65,43.31,13.61,43.34,13.57z"/>
		</g>
		<g>
			<path class="st1" d="M39.94,19.29c-0.1-0.43-0.18-0.83-0.29-1.28C39.97,18.22,40.15,19.06,39.94,19.29z"/>
		</g>
		<g>
			<path class="st1" d="M41.26,17c0.14,0.31,0.28,0.62,0.41,0.94c0.02,0.06-0.05,0.18-0.1,0.35c-0.17-0.47-0.3-0.84-0.43-1.21
				C41.18,17.05,41.22,17.03,41.26,17z"/>
		</g>
		<g>
			<path class="st1" d="M44.29,14.38c0.17,0.24,0.3,0.4,0.41,0.59c0.01,0.02-0.09,0.15-0.14,0.23c-0.12-0.15-0.25-0.3-0.36-0.47
				C44.18,14.69,44.24,14.56,44.29,14.38z"/>
		</g>
		<g>
			<path class="st1" d="M42.83,16.5c-0.21-0.41-0.37-0.72-0.53-1.03c0.03-0.04,0.07-0.07,0.1-0.11c0.17,0.27,0.36,0.53,0.52,0.81
				C42.95,16.2,42.88,16.34,42.83,16.5z"/>
		</g>
		<g>
			<path class="st1" d="M38.25,18.72c0.19,0.4,0.22,1.06,0.01,1.25c-0.04-0.43-0.07-0.84-0.1-1.25
				C38.2,18.72,38.22,18.72,38.25,18.72z"/>
		</g>
		<g>
			<path class="st1" d="M39.23,16.38c0.29,0.25,0.43,0.94,0.27,1.14C39.4,17.13,39.31,16.76,39.23,16.38z"/>
		</g>
		<g>
			<path class="st1" d="M36.38,18.15c0.21,0.31,0.18,0.99-0.06,1.26C36.34,19.01,36.36,18.62,36.38,18.15z"/>
		</g>
		<g>
			<path class="st1" d="M42.69,10.48c0.16,0.08,0.33,0.15,0.48,0.26c0.05,0.04,0.06,0.17,0.09,0.27c-0.07,0-0.14,0.03-0.19-0.01
				c-0.15-0.11-0.3-0.25-0.45-0.38C42.64,10.57,42.67,10.53,42.69,10.48z"/>
		</g>
		<g>
			<path class="st1" d="M40.47,15.55c0.33,0.19,0.54,0.83,0.39,1.05C40.73,16.25,40.6,15.9,40.47,15.55z"/>
		</g>
		<g>
			<path class="st1" d="M41.95,15.1c-0.16-0.31-0.31-0.59-0.46-0.87c-0.01-0.02,0-0.06,0-0.1C41.8,14.28,42.09,14.85,41.95,15.1z"/>
		</g>
		<g>
			<path class="st1" d="M42.36,12.64c0.18,0.17,0.37,0.33,0.54,0.52c0.03,0.04,0.02,0.16,0.02,0.24c-0.06-0.02-0.13-0.01-0.17-0.05
				c-0.16-0.19-0.31-0.4-0.46-0.61C42.31,12.7,42.34,12.67,42.36,12.64z"/>
		</g>
		<g>
			<path class="st1" d="M43.25,16.6c0.11,0.17,0.24,0.34,0.34,0.52c0.02,0.05-0.04,0.17-0.07,0.26c-0.06-0.04-0.14-0.07-0.17-0.13
				c-0.08-0.18-0.13-0.38-0.2-0.57C43.18,16.65,43.21,16.63,43.25,16.6z"/>
		</g>
		<g>
			<path class="st1" d="M40.11,19.68c0.29,0.13,0.27,0.43,0.33,0.64c0.02,0.07-0.06,0.18-0.1,0.28c-0.03-0.01-0.05-0.02-0.08-0.03
				C40.21,20.3,40.17,20.02,40.11,19.68z"/>
		</g>
		<g>
			<path class="st1" d="M38.05,16.98c0.16,0.3,0.2,0.96,0.04,1.21c-0.04-0.43-0.08-0.81-0.11-1.19
				C38.01,16.99,38.03,16.98,38.05,16.98z"/>
		</g>
		<g>
			<path class="st1" d="M38.39,21.28c-0.02-0.28-0.04-0.55-0.06-0.87c0.27,0.13,0.22,0.39,0.25,0.59c0.01,0.1-0.05,0.22-0.08,0.32
				C38.46,21.31,38.43,21.3,38.39,21.28z"/>
		</g>
		<g>
			<path class="st1" d="M42.02,19.37c-0.07-0.25-0.13-0.51-0.22-0.82c0.28,0.07,0.31,0.34,0.38,0.53c0.03,0.07-0.04,0.2-0.07,0.3
				C42.08,19.39,42.05,19.38,42.02,19.37z"/>
		</g>
		<g>
			<path class="st1" d="M36.62,16.57c-0.02,0.37-0.04,0.73-0.06,1.1c-0.04,0-0.09-0.01-0.13-0.01c0.02-0.36,0.03-0.73,0.05-1.09
				C36.53,16.57,36.57,16.57,36.62,16.57z"/>
		</g>
		<g>
			<path class="st1" d="M36.24,20.83c0.01-0.38,0.02-0.67,0.03-0.98C36.51,20.04,36.51,20.52,36.24,20.83z"/>
		</g>
		<g>
			<path class="st1" d="M40.19,15.02c-0.14-0.36-0.27-0.68-0.41-1.04C40.04,14.11,40.3,14.74,40.19,15.02z"/>
		</g>
		<g>
			<path class="st1" d="M38.77,14.62c0.24,0.23,0.4,0.9,0.28,1.15C38.95,15.38,38.87,15.03,38.77,14.62z"/>
		</g>
		<g>
			<path class="st1" d="M42.21,10.54c-0.26-0.19-0.43-0.32-0.61-0.45c0.01-0.04,0.02-0.08,0.04-0.12c0.17,0.08,0.35,0.15,0.52,0.25
				C42.19,10.24,42.18,10.38,42.21,10.54z"/>
		</g>
		<g>
			<path class="st1" d="M40.6,12.9c0.33,0.14,0.58,0.6,0.49,0.86C40.92,13.45,40.76,13.17,40.6,12.9z"/>
		</g>
		<g>
			<path class="st1" d="M36.53,15.91c0.02-0.34,0.04-0.67,0.06-1.01c0.04,0,0.08,0.01,0.12,0.01c-0.02,0.34-0.03,0.67-0.05,1.01
				C36.62,15.92,36.57,15.92,36.53,15.91z"/>
		</g>
		<g>
			<path class="st1" d="M41.39,11.72c0.19,0.21,0.46,0.31,0.56,0.64c-0.03,0.04-0.05,0.07-0.08,0.11c-0.19-0.21-0.37-0.43-0.56-0.64
				C41.34,11.78,41.36,11.75,41.39,11.72z"/>
		</g>
		<g>
			<path class="st1" d="M37.9,16.3c-0.03-0.35-0.06-0.69-0.09-1.04c0.04-0.01,0.07-0.01,0.11-0.02c0.03,0.35,0.07,0.69,0.1,1.04
				C37.98,16.29,37.94,16.29,37.9,16.3z"/>
		</g>
		<g>
			<path class="st1" d="M39.2,12.41c0.13,0.3,0.26,0.59,0.39,0.89c-0.03,0.02-0.07,0.05-0.1,0.07c-0.12-0.3-0.25-0.61-0.37-0.91
				C39.15,12.43,39.18,12.42,39.2,12.41z"/>
		</g>
		<g>
			<path class="st1" d="M38.57,13.93c-0.08-0.32-0.16-0.64-0.23-0.95c0.03-0.01,0.06-0.03,0.09-0.04c0.09,0.32,0.17,0.63,0.26,0.95
				C38.65,13.9,38.61,13.92,38.57,13.93z"/>
		</g>
		<g>
			<path class="st1" d="M40.86,11.45c-0.17-0.19-0.34-0.39-0.52-0.58c0.02-0.03,0.04-0.06,0.06-0.09c0.18,0.18,0.36,0.37,0.55,0.55
				C40.92,11.36,40.89,11.4,40.86,11.45z"/>
		</g>
		<g>
			<path class="st1" d="M40.2,12.36c-0.15-0.25-0.31-0.5-0.46-0.75c0.02-0.02,0.04-0.04,0.06-0.06c0.18,0.23,0.38,0.44,0.49,0.74
				C40.26,12.32,40.23,12.34,40.2,12.36z"/>
		</g>
		<g>
			<path class="st1" d="M37.72,13.51c0.04,0.32,0.07,0.64,0.11,0.96c-0.03,0.01-0.07,0.01-0.1,0.02c-0.03-0.32-0.07-0.64-0.1-0.96
				C37.66,13.52,37.69,13.51,37.72,13.51z"/>
		</g>
		<g>
			<path class="st1" d="M41.08,9.87c-0.18-0.12-0.35-0.25-0.53-0.37c0.24-0.01,0.44,0.08,0.61,0.23C41.13,9.78,41.1,9.82,41.08,9.87
				z"/>
		</g>
		<g>
			<path class="st1" d="M36.64,14.15c0.02-0.3,0.04-0.59,0.06-0.89c0.03,0,0.06,0,0.09,0.01c-0.02,0.29-0.03,0.59-0.05,0.88
				C36.71,14.15,36.67,14.15,36.64,14.15z"/>
		</g>
		<g>
			<path class="st1" d="M39.85,9.54c-0.45-0.79-0.97-1.27-1.77-1.13c0.47-0.27,1.15-0.02,1.57,0.54c0.08,0.11,0.16,0.22,0.22,0.35
				C39.89,9.36,39.86,9.46,39.85,9.54z"/>
		</g>
		<g>
			<path class="st1" d="M37.26,8.24C37.18,8.35,37.1,8.47,37,8.57c-1.56,2.06-3.38,3.82-5.29,5.36c-2.02,1.61-4.18,2.96-6.44,3.98
				c-2.25,1.04-4.61,1.75-7,2.14c-0.6,0.08-1.2,0.19-1.8,0.23l-0.9,0.08c-0.26,0.02-0.53,0.02-0.78,0.07
				c-1.03,0.13-1.94,0.58-2.55,1.35c-0.62,0.76-0.96,1.93-1.12,3.25c-0.16,1.32-0.14,2.76-0.07,4.22c0.17,2.92,0.58,5.91,0.89,8.98
				c0.16,1.54,0.29,3.11,0.34,4.72c0.05,1.62,0.02,3.29-0.27,5.04c-0.15,0.87-0.38,1.77-0.74,2.63c-0.35,0.86-0.84,1.68-1.43,2.35
				c-0.59,0.67-1.28,1.17-1.97,1.5c-0.37,0.19-0.75,0.33-1.12,0.44L5,53.9v-2.88l0.54,0.01c0.93-0.14,1.76-0.48,2.35-1.1
				c0.61-0.62,1.03-1.6,1.27-2.83c0.25-1.23,0.32-2.63,0.31-4.06c-0.01-1.44-0.1-2.91-0.21-4.41c-0.23-2.99-0.57-6.04-0.68-9.22
				c-0.04-1.6-0.03-3.23,0.22-4.92c0.13-0.84,0.31-1.7,0.62-2.54c0.31-0.83,0.73-1.65,1.29-2.3c0.56-0.65,1.21-1.13,1.88-1.44
				c0.67-0.31,1.34-0.46,1.99-0.53c0.33-0.04,0.65-0.04,0.98-0.05l0.86,0.02c0.57,0.03,1.14,0,1.71-0.02
				c2.28-0.11,4.56-0.53,6.8-1.27c2.23-0.74,4.41-1.8,6.5-3.15c1.97-1.3,3.88-2.81,5.57-4.69C37.08,8.44,37.17,8.35,37.26,8.24z"/>
		</g>
		<g>
			<path class="st1" d="M40.36,9.43l-0.74,0.69l-0.04,0.03l-0.2,0.19c-0.07,0.07-0.14,0.14-0.22,0.21l-0.08,0.07
				c-0.16,0.15-0.32,0.3-0.48,0.45l-0.76,0.71l-0.01,0c-0.05,0.04-0.1,0.08-0.14,0.13l0,0.01l-0.51,0.47l-0.29,0.27
				c-0.57-1.32-0.47-2.87,0.23-3.98c-0.01-0.01-0.03-0.01-0.04-0.02c-0.17-0.13-0.23-0.42-0.13-0.64c0.1-0.22,0.32-0.3,0.49-0.17
				c0.09,0.07,0.14,0.17,0.17,0.29c0.5-0.35,1.21-0.37,1.74-0.01C39.77,8.41,40.1,8.84,40.36,9.43z"/>
		</g>
		<g>
			<path class="st1" d="M37.65,12.64c-0.03-0.01-0.06-0.02-0.09-0.03c-0.03-0.15-0.05-0.31-0.08-0.5c-0.1,0.09-0.2,0.18-0.3,0.27
				l0.51-0.47C37.56,12.07,37.53,12.3,37.65,12.64z"/>
		</g>
		<g>
			<path class="st1" d="M38.11,11.75c0.02,0.12,0.05,0.23,0.08,0.35c-0.02,0.01-0.04,0.01-0.06,0.02c-0.04-0.14-0.08-0.29-0.13-0.44
				c-0.06,0.03-0.12,0.06-0.17,0.1l0.76-0.71c-0.16,0.15-0.32,0.31-0.48,0.46C38.09,11.56,38.1,11.68,38.11,11.75z"/>
		</g>
		<g>
			<path class="st1" d="M39.36,10.91c-0.01,0.01-0.03,0.03-0.04,0.05c-0.07-0.1-0.14-0.19-0.24-0.34l0.08-0.07
				C39.23,10.67,39.3,10.79,39.36,10.91z"/>
		</g>
		<g>
			<path class="st1" d="M39.91,10.28c-0.02,0.03-0.04,0.06-0.06,0.09c-0.08-0.07-0.17-0.14-0.26-0.22l0.04-0.03
				C39.73,10.18,39.82,10.22,39.91,10.28z"/>
		</g>
		<line class="st1" x1="37.83" y1="11.78" x2="37.69" y2="11.9"/>
		<g>
			<path class="st1" d="M38.08,8.41c0.47-0.27,1.15-0.02,1.57,0.54c0.08,0.11,0.16,0.22,0.22,0.35c0.03,0.06-0.01,0.16-0.02,0.24
				C39.4,8.75,38.88,8.27,38.08,8.41z"/>
		</g>
	</g>
</g>
</svg>
